<svg width="21" height="21" viewBox="0 0 21 21" fill="none" xmlns="http://www.w3.org/2000/svg">
<path d="M15.8438 3.99442C15.1795 3.99442 14.6481 4.53163 14.6481 5.19014C14.6481 5.85442 15.1853 6.38585 15.8438 6.38585C16.5081 6.38585 17.0395 5.84864 17.0395 5.19014C17.0453 4.53163 16.5081 3.99442 15.8438 3.99442Z" fill="#061217"/>
<path d="M10.518 5.53094C7.7453 5.53094 5.48673 7.78951 5.48673 10.5622C5.48673 13.3348 7.7453 15.5934 10.518 15.5934C13.2906 15.5934 15.5492 13.3348 15.5492 10.5622C15.5492 7.78951 13.2906 5.53094 10.518 5.53094ZM10.518 13.7912C8.73883 13.7912 7.29474 12.3471 7.29474 10.5679C7.29474 8.78882 8.73883 7.34473 10.518 7.34473C12.2971 7.34473 13.7412 8.78882 13.7412 10.5679C13.7412 12.3413 12.2971 13.7912 10.518 13.7912Z" fill="#061217"/>
<path d="M14.5152 20.7864H6.35319C2.96823 20.7864 0.212891 18.031 0.212891 14.6461V6.48405C0.212891 3.09909 2.96823 0.34375 6.35319 0.34375H14.5152C17.9002 0.34375 20.6555 3.09909 20.6555 6.48405V14.6461C20.6497 18.031 17.9002 20.7864 14.5152 20.7864ZM6.35319 2.26728C4.03108 2.26728 2.13643 4.15616 2.13643 6.48405V14.6461C2.13643 16.9682 4.0253 18.8628 6.35319 18.8628H14.5152C16.8431 18.8628 18.732 16.974 18.732 14.6461V6.48405C18.732 4.16194 16.8431 2.26728 14.5152 2.26728H6.35319Z" fill="#061217"/>
</svg>
