<svg width="18" height="21" viewBox="0 0 18 21" fill="none" xmlns="http://www.w3.org/2000/svg">
<path fill-rule="evenodd" clip-rule="evenodd" d="M7.5702 13.215C7.55246 13.2708 7.53471 13.321 7.52288 13.3657C6.75378 16.2062 6.67095 16.8368 5.87819 18.1594C5.49956 18.7845 5.07951 19.3816 4.60622 19.9508C4.55298 20.0178 4.50565 20.0959 4.39916 20.0792C4.28084 20.0568 4.27492 19.9564 4.26309 19.8727C4.13885 19.0077 4.06785 18.1427 4.09744 17.2721C4.13885 16.1392 4.28675 15.7486 5.83678 9.59315C5.86044 9.49828 5.83678 9.42015 5.80128 9.33644C5.42857 8.39332 5.35757 7.43345 5.68296 6.45684C6.38698 4.35852 8.90725 4.19668 9.35096 5.92668C9.6231 6.99816 8.90133 8.3989 8.35113 10.4749C7.89559 12.1826 10.0254 13.3991 11.8535 12.1547C13.5337 11.0051 14.1904 8.24264 14.0661 6.28942C13.8236 2.38855 9.2918 1.54588 6.41656 2.80152C3.12127 4.24132 2.36992 8.09196 3.86079 9.85544C4.05011 10.0787 4.19209 10.2182 4.13293 10.4414C4.03827 10.793 3.95545 11.1501 3.84896 11.5017C3.77205 11.764 3.54132 11.8589 3.26326 11.7529C2.71306 11.5464 2.25752 11.2115 1.8848 10.7818C0.61875 9.30296 0.257866 6.38429 1.93213 3.91207C3.78388 1.17198 7.22707 0.0670104 10.3745 0.401848C14.1312 0.803654 16.5036 3.22565 16.9473 5.97132C17.1484 7.22139 17.0064 10.3075 15.1429 12.4895C13.0012 14.9952 9.52844 15.1626 7.93109 13.6224C7.7891 13.494 7.69444 13.3545 7.5702 13.215Z" fill="#061217"/>
</svg>
