<svg width="25" height="21" viewBox="0 0 25 21" fill="none" xmlns="http://www.w3.org/2000/svg">
<path d="M24.6176 2.79678C23.8314 3.15493 22.9704 3.36866 22.121 3.51307C22.5228 3.44375 23.1139 2.71591 23.3492 2.41553C23.7108 1.96497 24.0093 1.45086 24.1757 0.896318C24.1987 0.850106 24.2159 0.79812 24.17 0.763461C24.1183 0.740355 24.0781 0.751906 24.038 0.775012C23.0967 1.28334 22.121 1.65304 21.0765 1.91298C20.9904 1.93609 20.9272 1.91298 20.8698 1.86099C20.7837 1.76279 20.7034 1.67037 20.6116 1.59527C20.1754 1.2198 19.7047 0.9252 19.1767 0.71147C18.4823 0.428422 17.7247 0.307114 16.9785 0.353326C16.2496 0.399538 15.5379 0.607496 14.8951 0.948309C14.2466 1.28912 13.6726 1.76279 13.2135 2.32889C12.7371 2.91809 12.387 3.61704 12.2091 4.35643C12.0369 5.06694 12.0484 5.77168 12.1575 6.49374C12.1747 6.61505 12.1632 6.6266 12.0541 6.61504C7.99066 6.00851 4.62164 4.54128 1.8897 1.41043C1.76917 1.27179 1.70604 1.27179 1.60847 1.42198C0.414677 3.22425 0.994355 6.12404 2.48659 7.55084C2.68747 7.74146 2.88835 7.93209 3.11219 8.10538C3.03183 8.12271 2.03892 8.01296 1.14932 7.55084C1.02879 7.47574 0.971397 7.51617 0.959918 7.65481C0.948439 7.85121 0.965657 8.03028 0.994354 8.23824C1.22393 10.0694 2.48085 11.7619 4.20841 12.4204C4.41503 12.5071 4.63886 12.5822 4.8627 12.6226C4.47242 12.7092 4.06492 12.7728 2.94 12.6804C2.80226 12.6515 2.74487 12.7266 2.80226 12.8594C3.64595 15.1816 5.47681 15.8748 6.84278 16.2676C7.02644 16.3022 7.2101 16.3022 7.39376 16.3427C7.38229 16.36 7.37081 16.36 7.35933 16.3773C6.90592 17.0763 5.33333 17.5904 4.59869 17.8503C3.26715 18.3182 1.81509 18.5319 0.408938 18.3933C0.185102 18.3586 0.133447 18.3644 0.0760534 18.3933C0.0129202 18.4337 0.070314 18.4857 0.139187 18.5435C0.426156 18.7341 0.713125 18.9016 1.01157 19.0634C1.90692 19.5428 2.8367 19.9183 3.81239 20.1898C8.85157 21.5877 14.5221 20.5595 18.3043 16.7817C21.2716 13.8126 22.3162 9.71702 22.3162 5.61571C22.3162 5.45397 22.5056 5.36732 22.6146 5.28068C23.3894 4.69725 24.0093 3.9983 24.589 3.21847C24.721 3.04517 24.721 2.88921 24.721 2.82567C24.721 2.81412 24.721 2.80256 24.721 2.80256C24.721 2.73324 24.721 2.75057 24.6176 2.79678Z" fill="#061217"/>
</svg>
